<?xml version="1.0" encoding="UTF-8"?>
<svg id="LOGO" xmlns="http://www.w3.org/2000/svg" viewBox="0 0 300 248.86">
  <defs>
    <style>
      .cls-1 {
        fill: #fff;
      }
    </style>
  </defs>
  <path class="cls-1" d="M300,149.99c0,21.92-4.64,43.07-13.79,62.81-5.89,12.71-13.55,24.56-22.74,35.17l-21.85-21.83L121.87,106.37l.15-.15c15.9-15.92,41.69-15.92,57.6,0l.02,.02,54.78,54.8,27.93,27.93c4.77-14,6.99-29.18,6.12-44.96-3.45-62.11-55.27-111.53-117.48-112.17-66.15-.68-120.17,52.92-120.19,118.92,0,13.96,2.43,27.36,6.88,39.81l17.15-17.13,33.88-33.88,79.86,79.86-28.95,28.95-50.91-50.93-29.88,29.88-21.54,21.54c-9.27-10.52-17-22.28-22.98-34.92C4.81,193.84,0,172.33,0,149.99,0,67.28,67.28,0,150.01,0s149.99,67.28,149.99,149.99Z"/>
</svg>