<?xml version="1.0" encoding="UTF-8"?><svg id="Layer_1" xmlns="http://www.w3.org/2000/svg" viewBox="0 0 114.5 71.46"><defs><style>.cls-1{fill:#1d1d1b;}</style></defs><path class="cls-1" d="M0,1.21H11.52V44.17c0,5.67,.45,9.82,2.89,14.27,3.23,5.87,8.89,9.3,17.89,9.3,14.52,0,19.13-7.6,19.13-14,0-8.69-11.47-12.61-22.36-17.67-9.65-4.48-11.82-11.82-10.24-20.18C20.51,7.12,28.58,0,42.35,0c9.85,0,15.21,.98,21.5,1.8l37.16,48.96V1.21h13.48v3.5h-9.33V70.65h-3.26L61.22,17.32v20.08c-1.04-1.35-2.4-2.67-4.15-3.97V11.62c-1.36-4.38-5.66-8.08-14.52-8.31-7.24-.18-13.6,3.18-14.73,10.49-1.49,9.61,7.07,11.94,18.34,17.4,12.29,5.95,15.31,11.75,15.31,18.33,0,9.27-10.14,21.93-29.25,21.93-10.47,0-19.14-3.09-24.77-8.83C1.3,56.36,0,51.07,0,41.2V1.21Z"/></svg>