<?xml version="1.0" encoding="utf-8"?>
<!-- Generator: Adobe Illustrator 26.3.1, SVG Export Plug-In . SVG Version: 6.00 Build 0)  -->
<svg version="1.1" id="LAYER" xmlns="http://www.w3.org/2000/svg" xmlns:xlink="http://www.w3.org/1999/xlink" x="0px" y="0px"
	 viewBox="0 0 317.3 71.5" style="enable-background:new 0 0 317.3 71.5;" xml:space="preserve">
<rect id="LINE" x="133.4" y="69.4" width="183.9" height="1.2"/>
<g id="TEXT">
	<path d="M133,1.2h3.3v13.1c0,2.4,1.3,3.9,3.9,3.9c2.7,0,4-1.5,4-3.9V1.2h3.3v13.3c0,4.3-2.9,6.8-7.3,6.8c-4.4,0-7.2-2.6-7.2-6.8
		V1.2z"/>
	<path d="M151.6,6h3.1v1.4h0.1c0.8-1,2.3-1.9,4-1.9c3.3,0,5.3,2.1,5.3,5.6v9.7h-3.2V12c0-2.2-0.8-3.5-2.9-3.5c-2,0-3.2,1.2-3.2,3.1
		v9.2h-3.2V6z"/>
	<path d="M168.2,0.4h3.3v3.2h-3.3V0.4z M168.2,6h3.2v14.9h-3.2V6z"/>
	<polygon points="173.8,6 177.1,6 181.1,16.3 181.1,16.3 185.1,6 188.4,6 182.4,20.9 179.7,20.9 	"/>
	<path d="M202.7,17.8c-1.2,1.9-3,3.5-6.2,3.5c-4,0-7-3-7-7.9c0-4.8,2.9-7.9,6.9-7.9c3.9,0,6.8,3,6.8,7.9v1h-10.4
		c0.1,2.4,1.3,4.1,3.7,4.1c2.3,0,3.3-1.5,3.9-2.5L202.7,17.8z M200,12c-0.1-2-1.3-3.6-3.7-3.6c-2.3,0-3.5,1.9-3.6,3.6H200z"/>
	<path d="M206.4,6h3v1.6h0.1c0.6-1.2,1.8-1.9,3.1-1.9c0.5,0,1,0.1,1.3,0.3l-0.5,3.1c-0.3-0.1-0.7-0.2-1.2-0.2
		c-1.7,0-2.6,1.1-2.6,3.7v8.3h-3.2V6z"/>
	<path d="M218.3,15.2c0.3,2.2,1.5,3.4,3.6,3.4c2,0,3.1-0.8,3.1-1.9c0-1.2-0.9-1.5-4.1-2.4c-3.4-1-5-2.1-5-4.4c0-2.2,1.9-4.4,5.5-4.4
		c3.6,0,5.4,1.9,6.1,4.4l-2.7,0.8c-0.5-1.4-1.3-2.5-3.4-2.5c-1.7,0-2.6,0.8-2.6,1.6c0,1,0.6,1.2,4.4,2.3c3.8,1.1,4.7,2.4,4.7,4.6
		c0,2.1-1.7,4.5-5.9,4.5c-4.4,0-6.3-2.7-6.6-5.4L218.3,15.2z"/>
	<path d="M231,0.4h3.3v3.2H231V0.4z M231,6h3.2v14.9H231V6z"/>
	<path d="M239.3,8.7h-2.2V6h2.3V2.3h3V6h3.7v2.8h-3.7v6.8c0,1.5,0.3,2.2,1.9,2.2h1.2v3.1h-1.4c-3.7,0-4.8-1.7-4.8-5V8.7z"/>
	<path d="M261.2,17.8c-1.2,1.9-3,3.5-6.2,3.5c-4,0-7-3-7-7.9c0-4.8,2.9-7.9,6.9-7.9c3.9,0,6.8,3,6.8,7.9v1h-10.4
		c0.1,2.4,1.3,4.1,3.7,4.1c2.3,0,3.3-1.5,3.9-2.5L261.2,17.8z M258.5,12c-0.1-2-1.3-3.6-3.7-3.6c-2.3,0-3.5,1.9-3.6,3.6H258.5z"/>
	<path d="M265.6,8.7h-2.2V6h2.3V2.3h3V6h3.7v2.8h-3.7v6.8c0,1.5,0.3,2.2,1.9,2.2h1.2v3.1h-1.4c-3.7,0-4.8-1.7-4.8-5V8.7z"/>
	<path d="M287.4,17.8c-1.2,1.9-3,3.5-6.2,3.5c-4,0-7-3-7-7.9c0-4.8,2.9-7.9,6.9-7.9c3.9,0,6.8,3,6.8,7.9v1h-10.4
		c0.1,2.4,1.3,4.1,3.7,4.1c2.3,0,3.3-1.5,3.9-2.5L287.4,17.8z M284.8,12c-0.1-2-1.3-3.6-3.7-3.6c-2.3,0-3.5,1.9-3.6,3.6H284.8z"/>
	<path d="M291.8,8.7h-2.2V6h2.3V2.3h3V6h3.7v2.8H295v6.8c0,1.5,0.3,2.2,1.9,2.2h1.2v3.1h-1.4c-3.7,0-4.8-1.7-4.8-5V8.7z"/>
	<path d="M133.4,32.7h3.3v3.2h-3.3V32.7z M133.4,38.3h3.2v14.9h-3.2V38.3z"/>
	<path d="M147.9,45.8c0.5,3.1,1.4,4.7,4.4,4.7c2.4,0,3.8-1,3.8-2.7c0-1.6-0.7-2.2-5.2-3.7c-4.2-1.3-5.8-3.1-5.8-5.7
		c0-2.8,2.3-5.4,6.5-5.4c3.5,0,6.5,1.7,7.2,5.4l-3.2,0.8c-0.5-1.7-1.4-3.1-3.9-3.1c-2.2,0-3.2,1-3.2,2.3c0,1.3,0.6,1.7,5,3.2
		c4.7,1.6,6,3.1,6,6c0,3.3-2.6,5.9-7.1,5.9c-4.5,0-7.3-2.4-7.9-7L147.9,45.8z"/>
	<path d="M163.4,51.3c-1.1-1.3-1.7-3.2-1.7-5.5c0-5.1,3.2-7.9,6.9-7.9c1.5,0,3,0.5,4.1,1.4l1.1-1.4l1.1,0.9l-1.2,1.5
		c1.1,1.3,1.7,3.2,1.7,5.5c0,5.1-3,7.9-6.9,7.9c-1.6,0-3.1-0.5-4.2-1.4l-1,1.3l-1.1-0.9L163.4,51.3z M170.8,41.7
		c-0.6-0.6-1.4-0.9-2.3-0.9c-2.1,0-3.7,1.7-3.7,5c0,1.2,0.2,2.2,0.6,2.9L170.8,41.7z M166.2,49.8c0.6,0.6,1.4,0.9,2.4,0.9
		c2.2,0,3.7-1.7,3.7-5c0-1.2-0.2-2.1-0.6-2.9L166.2,49.8z"/>
	<path d="M178.8,38.3h3v1.6h0.1c0.6-1.2,1.8-1.9,3.1-1.9c0.5,0,1,0.1,1.3,0.3l-0.5,3.1c-0.3-0.1-0.7-0.2-1.2-0.2
		c-1.7,0-2.6,1.1-2.6,3.7v8.3h-3.2V38.3z"/>
	<path d="M189.2,51.3c-1.1-1.3-1.7-3.2-1.7-5.5c0-5.1,3.2-7.9,6.9-7.9c1.5,0,2.9,0.5,4.1,1.4l1.1-1.4l1.1,0.9l-1.2,1.5
		c1.1,1.3,1.7,3.2,1.7,5.5c0,5.1-3,7.9-6.9,7.9c-1.6,0-3.1-0.5-4.2-1.4l-1,1.3l-1.1-0.9L189.2,51.3z M196.6,41.7
		c-0.6-0.6-1.4-0.9-2.3-0.9c-2.1,0-3.7,1.7-3.7,5c0,1.2,0.2,2.2,0.6,2.9L196.6,41.7z M192,49.8c0.6,0.6,1.4,0.9,2.4,0.9
		c2.2,0,3.7-1.7,3.7-5c0-1.2-0.2-2.1-0.6-2.9L192,49.8z"/>
	<path d="M206.3,47.5c0.3,2.2,1.5,3.4,3.6,3.4c2,0,3.1-0.8,3.1-1.9c0-1.2-0.9-1.5-4.1-2.4c-3.4-1-5-2.1-5-4.4c0-2.2,1.9-4.4,5.5-4.4
		c3.6,0,5.4,1.9,6.1,4.4l-2.7,0.8c-0.5-1.4-1.3-2.5-3.4-2.5c-1.7,0-2.6,0.8-2.6,1.6c0,1,0.6,1.2,4.4,2.3c3.8,1.1,4.7,2.4,4.7,4.6
		c0,2.1-1.7,4.6-5.9,4.6c-4.4,0-6.3-2.7-6.6-5.4L206.3,47.5z"/>
	<path d="M219.6,41h-2.2v-2.8h2.3v-3.7h3v3.7h3.7V41h-3.7v6.8c0,1.5,0.3,2.2,1.9,2.2h1.2v3.1h-1.4c-3.7,0-4.8-1.7-4.8-5V41z"/>
	<rect x="229.7" y="42.6" width="8.3" height="2.6"/>
	<polygon points="242.5,33.5 246,33.5 253.8,47.4 253.8,47.4 253.8,33.5 257.2,33.5 257.2,53.2 253.8,53.2 245.9,39.3 245.8,39.3 
		245.8,53.2 242.5,53.2 	"/>
	<path d="M260.7,45.7c0-5.1,3.2-7.9,6.9-7.9c3.7,0,6.9,2.8,6.9,7.9c0,5.1-3,7.9-6.9,7.9C263.7,53.6,260.7,50.8,260.7,45.7
		 M271.3,45.7c0-3.2-1.5-5-3.7-5c-2.2,0-3.7,1.7-3.7,5c0,3.3,1.5,5,3.7,5C269.7,50.7,271.3,49,271.3,45.7"/>
	<path d="M277.7,38.3h3v1.6h0.1c0.6-1.2,1.8-1.9,3.1-1.9c0.5,0,1,0.1,1.3,0.3l-0.5,3.1c-0.3-0.1-0.7-0.2-1.2-0.2
		c-1.7,0-2.6,1.1-2.6,3.7v8.3h-3.2V38.3z"/>
	<path d="M289.7,54.5c0.7,1.6,1.7,2.6,3.7,2.6c2,0,3.3-1,3.3-3.4v-1.9h-0.1c-0.6,0.9-2,1.8-3.8,1.8c-3.7,0-6.7-2.9-6.7-7.9
		c0-5,3.2-7.9,6.6-7.9c2,0,3.3,0.9,4,1.9h0.1v-1.4h3.1v15c0,4.4-2.8,6.7-6.5,6.7c-3.2,0-5.3-1.7-6.2-3.8L289.7,54.5z M296.7,44
		c0-1.7-1.3-3.2-3.4-3.2c-2.3,0-4,1.7-4,5c0,3.3,1.6,5,4,5c2.1,0,3.4-1.4,3.4-3.1V44z"/>
	<path d="M316.2,50.1c-1.2,1.9-3,3.5-6.2,3.5c-4,0-7-3-7-7.9c0-4.8,2.9-7.9,6.9-7.9c3.9,0,6.8,3,6.8,7.9v1h-10.4
		c0.1,2.4,1.3,4.1,3.7,4.1c2.3,0,3.3-1.5,3.9-2.5L316.2,50.1z M313.5,44.3c-0.1-2-1.3-3.6-3.7-3.6c-2.3,0-3.5,1.9-3.6,3.6H313.5z"/>
</g>
<path id="EMBLEM" d="M0,1.2h11.5l0,43c0,5.7,0.4,9.8,2.9,14.3c3.2,5.9,8.9,9.3,17.9,9.3c14.5,0,19.1-7.6,19.1-14
	c0-8.7-11.5-12.6-22.4-17.7c-9.7-4.5-11.8-11.8-10.2-20.2C20.5,7.1,28.6,0,42.4,0c9.8,0,15.2,1,21.5,1.8l37.2,49l0-49.5l13.5,0v3.5
	h-9.3v65.9h-3.3L61.2,17.3v20.1c-1-1.3-2.4-2.7-4.1-4V11.6c-1.4-4.4-5.7-8.1-14.5-8.3c-7.2-0.2-13.6,3.2-14.7,10.5
	c-1.5,9.6,7.1,11.9,18.3,17.4C58.4,37.2,61.5,43,61.5,49.5c0,9.3-10.1,21.9-29.2,21.9c-10.5,0-19.1-3.1-24.8-8.8
	C1.3,56.4,0,51.1,0,41.2V1.2z"/>
</svg>
